<svg width="5365" height="1540" viewBox="0 0 5365 1540" fill="none" xmlns="http://www.w3.org/2000/svg">
<path fill-rule="evenodd" clip-rule="evenodd" d="M4797.63 117.414C5517.59 -0.619566 5071.37 551.79 5208.58 786.382C5826.95 1843.59 3922.41 1369.16 2902.8 1369.16C1877.99 1369.16 -626.174 1930.35 189.03 841.76C425.072 526.56 -366.165 -221.514 999.878 117.414C2036.96 374.725 2984.29 414.702 4797.63 117.414Z" fill="#FDC435" fill-opacity="0.61"/>
<path fill-rule="evenodd" clip-rule="evenodd" d="M4823.54 93.1108C5551.11 -28.8552 5100.17 541.959 5238.84 784.367C5863.74 1876.8 3939.06 1386.57 2908.67 1386.57C1873.02 1386.57 -657.623 1966.45 166.202 841.59C404.74 515.889 -394.865 -257.109 985.625 93.1108C2033.68 358.994 2991.02 400.304 4823.54 93.1108Z" stroke="black" stroke-width="7"/>
</svg>
