<svg width="1440" height="191" viewBox="0 0 1440 191" fill="none" xmlns="http://www.w3.org/2000/svg">
<path fill-rule="evenodd" clip-rule="evenodd" d="M0 111.75L60 99.3333C120 86.9167 240 62.0833 360 65.1875C480 68.2917 600 99.3333 720 99.3333C840 99.3333 960 68.2917 1080 46.5625C1200 24.8333 1320 12.4167 1380 6.20833L1440 0V149H1380C1320 149 1200 149 1080 149C960 149 840 149 720 149C600 149 480 149 360 149C240 149 120 149 60 149H0V111.75Z" fill="black"/>
<path fill-rule="evenodd" clip-rule="evenodd" d="M0 140.5L60 128C120 115.5 240 90.5 360 93.625C480 96.75 600 128 720 128C840 128 960 96.75 1080 74.875C1200 53 1320 40.5 1380 34.25L1440 28V178H1380C1320 178 1200 178 1080 178C960 178 840 178 720 178C600 178 480 178 360 178C240 178 120 178 60 178H0V140.5Z" fill="#F30000"/>
<path fill-rule="evenodd" clip-rule="evenodd" d="M0 158.5L60 147.667C120 136.833 240 115.167 360 117.875C480 120.583 600 147.667 720 147.667C840 147.667 960 120.583 1080 101.625C1200 82.6667 1320 71.8333 1380 66.4167L1440 61V191H1380C1320 191 1200 191 1080 191C960 191 840 191 720 191C600 191 480 191 360 191C240 191 120 191 60 191H0V158.5Z" fill="#FDC435"/>
</svg>
