<svg width="857" height="614" viewBox="0 0 857 614" fill="none" xmlns="http://www.w3.org/2000/svg">
<path fill-rule="evenodd" clip-rule="evenodd" d="M382.929 606.882C306.426 594.943 244.364 572.891 180.739 536.516C120.14 501.87 43.2797 477.643 14.4712 422.327C-14.154 367.363 18.3729 306.357 30.2148 247.489C41.8188 189.804 36.7676 125.963 83.1084 81.1222C129.675 36.0626 205.985 21.4599 276.886 8.80046C344.028 -3.18776 410.388 6.49553 478.973 10.4403C567.714 15.5444 666.908 -7.20418 738.641 35.359C812.616 79.2524 847.498 158.639 853.531 232.686C859.372 304.383 809.461 368.276 771.041 433.061C733.349 496.62 733.473 525.944 659.427 563.123C585.705 600.139 468.13 620.179 382.929 606.882Z" stroke="black" stroke-width="5"/>
<path fill-rule="evenodd" clip-rule="evenodd" d="M385 599.698C310.295 588.049 249.691 566.532 187.562 531.038C128.387 497.233 53.333 473.593 25.2016 419.619C-2.75085 365.987 29.0117 306.46 40.5752 249.02C51.9065 192.734 46.974 130.441 92.2257 86.6872C137.698 42.7202 212.215 28.4716 281.449 16.1191C347.013 4.4216 411.814 13.8701 478.787 17.7192C565.442 22.6995 662.305 0.502572 732.352 42.0337C804.589 84.8627 838.651 162.324 844.542 234.576C850.246 304.534 801.507 366.878 763.991 430.092C727.185 492.11 727.306 520.723 655 557C583.01 593.119 468.199 612.672 385 599.698Z" fill="#FDC435" fill-opacity="0.85"/>
</svg>
